Coordinates
version=1
nRows=16
nColumns=36
inDegrees=yes

Units are S.I. units (second, meters, Newtons, ...)
If the header above contains a line with 'inDegrees', this indicates whether rotational values are in degrees (yes) or radians (no).

endheader
time	pelvis_tilt	pelvis_list	pelvis_rotation	pelvis_tx	pelvis_ty	pelvis_tz	hip_flexion_r	hip_adduction_r	hip_rotation_r	knee_angle_r	knee_angle_r_beta	ankle_angle_r	subtalar_angle_r	mtp_angle_r	hip_flexion_l	hip_adduction_l	hip_rotation_l	knee_angle_l	knee_angle_l_beta	ankle_angle_l	subtalar_angle_l	mtp_angle_l	lumbar_extension	lumbar_bending	lumbar_rotation	arm_flex_r	arm_add_r	arm_rot_r	elbow_flex_r	pro_sup_r	arm_flex_l	arm_add_l	arm_rot_l	elbow_flex_l	pro_sup_l
      0.00000000	      5.36405642	      0.61668872	      2.58094979	     -0.13986257	      1.15062723	      0.11461354	     -1.74214819	     -1.23138844	     -3.89939309	      1.88319895	      0.03286802	      7.15721334	      3.96472227	     -5.93881345	     -1.13145951	     -3.35841626	     -3.23587431	      1.97169770	      0.03441262	      7.62056163	      3.90805829	     -5.93881345	    -13.33322461	      2.08152470	     -1.11400888	      7.57532608	     -6.51055673	     18.92373114	     23.06739091	     76.30553450	      6.79574607	     -4.04736765	     16.56207124	     23.25861954	     70.18223617
      0.01666670	      5.24175468	      0.78240643	      2.09624294	     -0.14177478	      1.15387517	      0.11674263	     -1.29491785	     -1.08380415	     -2.97244029	      2.01278549	      0.03512973	      7.63303820	      2.02800489	     -7.07907784	     -1.36000182	     -2.87008634	     -2.61996377	      1.52187038	      0.02656165	      7.16988182	      3.39840334	     -7.07907784	    -12.80714441	      1.97166801	     -1.12293255	      7.50350323	     -5.90586002	     14.16788750	     22.78126281	     80.99579982	      6.77120156	     -3.48835328	     12.51221830	     23.24905253	     71.70882611
      0.03333330	      4.46161799	      1.40909404	      1.36471930	     -0.13913379	      1.14907331	      0.11868683	     -0.73426302	     -1.54697028	     -2.84078427	      1.47770501	      0.02579082	      7.19756422	      1.53129701	     -7.39206601	     -0.88267283	     -2.28130983	     -3.01817130	      1.46455855	      0.02556137	      7.35527838	      3.44459613	     -7.39206601	    -11.78535336	      0.91170230	     -0.40663648	      6.66109107	     -5.16025264	      9.46441695	     23.70808320	     83.78100931	      7.04521673	     -3.77731580	     13.17471786	     22.71094860	     71.33506119
      0.05000000	      4.52623602	      1.72267058	      1.07496344	     -0.13683598	      1.14598068	      0.11907952	     -0.80810730	     -1.86364154	     -2.97807051	      1.23335883	      0.02152617	      7.39379914	      1.51947234	     -7.46505831	     -1.40327745	     -1.98341227	     -2.75553814	      1.12310914	      0.01960195	      7.75940036	      3.10126144	     -7.46505831	    -11.72975002	      0.38463921	      0.03139205	      6.18663582	     -5.12435659	      8.16725537	     24.40389330	     84.83490647	      7.22495584	     -4.20321504	     13.71734694	     22.81906564	     71.41062674
      0.06666670	      4.37735167	      1.74556731	      1.03968898	     -0.13638584	      1.14903467	      0.11934061	     -0.77773596	     -1.82554769	     -3.04518614	      1.02065892	      0.01781386	      7.26329473	      1.52630857	     -7.49187746	     -1.47734848	     -1.92809392	     -2.50480518	      0.87051822	      0.01519341	      7.92159243	      2.83360404	     -7.49187746	    -11.37591792	      0.37523788	      0.27576380	      5.96034926	     -5.45775476	      8.71054170	     24.85680279	     85.25882541	      7.27598246	     -4.38808816	     14.60910763	     22.76013354	     71.72926265
      0.08333330	      4.25998329	      1.73220366	      0.92191397	     -0.13725710	      1.14952186	      0.11913098	     -0.72610982	     -1.78914295	     -2.87039235	      1.01914314	      0.01778740	      7.27288158	      1.51646643	     -7.49908233	     -1.39197707	     -1.90191077	     -2.41716065	      0.79002200	      0.01378849	      8.16678069	      2.75765354	     -7.49908233	    -11.12390318	      0.41768973	      0.49478506	      6.01317035	     -5.94042020	     10.10203275	     25.11380407	     84.98529452	      7.32690961	     -4.48587322	     15.14707956	     22.85388313	     72.48135327
      0.10000000	      4.08428112	      1.72364469	      0.88763617	     -0.13679016	      1.14733601	      0.11999361	     -0.59402927	     -1.76656969	     -2.65293827	      1.00237989	      0.01749483	      7.11633288	      1.33144534	     -7.49973907	     -1.20617017	     -1.92086695	     -2.29245304	      0.73368250	      0.01280518	      8.19922021	      2.39361176	     -7.49973907	    -10.72302054	      0.47671983	      0.61408909	      6.17000415	     -6.33687116	     11.54523856	     25.08981159	     84.59346368	      7.31322378	     -4.56086047	     15.43038355	     22.95994104	     73.24483225
      0.11666670	      3.91085888	      1.70697931	      1.03771869	     -0.13485153	      1.14572942	      0.11969596	     -0.54145021	     -1.71478759	     -2.59311028	      0.96217102	      0.01679305	      6.93889147	      1.14236664	     -7.49993016	     -1.04221332	     -1.93291096	     -2.05297761	      0.71827897	      0.01253633	      8.03147692	      1.94303546	     -7.49993016	    -10.28069801	      0.54944318	      0.66426738	      6.04150650	     -6.73891515	     12.58765901	     25.22233008	     84.40418027	      7.25123675	     -4.60380316	     15.63198738	     23.06403138	     73.92949856
      0.13333330	      3.78492633	      1.68799070	      1.11182510	     -0.13199776	      1.14855409	      0.12009970	     -0.56076360	     -1.65921617	     -2.51290593	      0.90981947	      0.01587935	      6.88973523	      1.16531395	     -7.49998349	     -1.07391148	     -1.97352077	     -1.91427480	      0.70971038	      0.01238678	      7.86588634	      1.64882233	     -7.49998349	     -9.72963911	      0.63085619	      0.61784238	      5.76287059	     -7.01557650	     13.02803205	     25.37776834	     84.62281025	      6.88708664	     -4.61897853	     15.48382708	     23.22899295	     74.39697690
      0.15000000	      3.72606799	      1.65747710	      1.12307857	     -0.13282387	      1.14015151	      0.12004628	     -0.58314710	     -1.56672360	     -2.18139060	      0.85601324	      0.01494025	      7.16622925	      1.08310371	     -7.49998363	     -1.05400870	     -2.03301886	     -1.89158209	      0.71942739	      0.01255638	      8.15196718	      1.42872019	     -7.49998363	     -9.38217783	      0.71647432	      0.77055735	      5.60584527	     -7.21501336	     13.07000954	     25.41735837	     84.64697455	      6.68381001	     -4.68538512	     15.48865082	     23.36881681	     74.42736351
      0.16666670	      3.34774983	      1.64942550	      1.16039329	     -0.13125330	      1.14530952	      0.11915318	     -0.25682836	     -1.56350009	     -2.09225474	      0.86859289	      0.01515981	      7.00080597	      0.91250730	     -7.49998473	     -0.68146864	     -2.01896819	     -1.82492476	      0.69530578	      0.01213538	      7.90631580	      1.30859346	     -7.49998473	     -8.67887680	      0.76954936	      0.80127860	      5.07989367	     -7.58482850	     13.06323909	     26.18457266	     83.89213984	      6.12873945	     -4.84826906	     15.44269841	     24.14708622	     74.01929891
      0.18333330	      3.36225201	      1.65062627	      1.13633111	     -0.13615266	      1.14386422	      0.11987286	     -0.24956694	     -1.54265858	     -2.08826411	      0.87828776	      0.01532901	      6.94484382	      0.88039544	     -7.49998475	     -0.61595926	     -2.01164771	     -1.89480795	      0.72742475	      0.01269596	      7.85516691	      1.21138016	     -7.49998475	     -8.67801964	      0.79964839	      0.81622796	      5.13366282	     -7.79348124	     13.04016656	     26.16866522	     83.90111696	      6.13001904	     -4.97683731	     15.42671412	     24.12561222	     74.03003358
      0.20000000	      3.34928849	      1.64655594	      1.12923762	     -0.13222170	      1.14685960	      0.11918728	     -0.17857873	     -1.55787875	     -2.01810377	      0.81547499	      0.01423272	      6.69295872	      0.76515501	     -7.49998483	     -0.53209757	     -1.99232857	     -1.91712266	      0.73419181	      0.01281406	      7.37435468	      1.02430677	     -7.49998483	     -8.48775787	      0.88529967	      0.75280350	      4.91689502	     -8.03803941	     13.03318583	     26.22530552	     83.94294134	      5.96487717	     -5.00904072	     15.44913251	     24.15062517	     74.08518168
      0.21666670	      2.81296988	      1.64888004	      1.18877433	     -0.13359744	      1.15065151	      0.12013744	      0.44319720	     -1.55327827	     -1.78699737	      0.76632848	      0.01337496	      6.35833545	      0.39118036	     -7.49998516	      0.18870199	     -1.95191112	     -1.51848264	      0.69158332	      0.01207041	      6.98491147	      0.56247070	     -7.49998516	     -7.74687419	      0.90676489	      0.77732515	      4.36384478	     -8.25848026	     12.99139785	     26.70942393	     84.13134227	      5.63358516	     -5.16781799	     15.49717052	     24.43277507	     74.34562414
      0.23333330	      2.86208381	      1.64270275	      1.17858332	     -0.13461064	      1.14463988	      0.11953874	      0.46174335	     -1.54217987	     -1.78338241	      0.74881918	      0.01306936	      6.35178892	      0.37205841	     -7.49998517	      0.30996511	     -1.93214907	     -1.52818859	      0.66967357	      0.01168801	      6.98017695	      0.55293088	     -7.49998517	     -7.81336861	      0.91481056	      0.76426863	      4.29911192	     -8.42276637	     12.96134744	     26.67806068	     84.13455125	      5.57575085	     -5.25556146	     15.48751179	     24.40838551	     74.35449504
      0.25000000	      2.83884020	      1.67869448	      1.03699026	     -0.13239063	      1.14495158	      0.11981160	      0.48598717	     -1.56683134	     -0.84023634	      0.72335985	      0.01262501	      5.58984630	     -1.20241908	     -7.49999721	      0.35176145	     -1.88549021	     -1.56576716	      0.66037266	      0.01152568	      6.83733153	      0.34971418	     -7.49999721	     -7.87248309	      0.86769999	      1.50755126	      3.18526311	     -8.63226319	     12.05878817	     28.49440704	     70.26604238	      5.30740559	     -5.03154952	     14.30003546	     25.50273511	     65.00413780
